# xmcd
#
# Track frame offsets:
#	150
#	14151
#	32740
#	47276
#	63445
#	80297
#	99181
#	122227
#	139332
#	155491
#	169254
#	182368
#	196379
#	214350
#
# Disc length: 3040 seconds
#
# Revision: 1
# Processed by: cddbd v1.5.2PL0 Copyright (c) Steve Scherf et al.
# Submitted via: audiograbber 1.83.01
#
DISCID=be0bde0e
DTITLE=Kimmie Rhodes - Cowgirl Boudoir
DYEAR=2015
DGENRE=Folk/Country
TTITLE0=I Am Falling
TTITLE1=Lover Killing Time
TTITLE2=None Of Us Are Innocent
TTITLE3=Me Again
TTITLE4=Don't Leave Me Like This
TTITLE5=Worthy Cause
TTITLE6=Always Never Leave
TTITLE7=Darlin' Oh Darlin'
TTITLE8=Trouble Is
TTITLE9=The Sky Fell Down
TTITLE10=Will You
TTITLE11=Having You Around
TTITLE12=What Do I Have Now
TTITLE13=Yes
EXTD=
EXTT0=
EXTT1=
EXTT2=
EXTT3=
EXTT4=
EXTT5=
EXTT6=
EXTT7=
EXTT8=
EXTT9=
EXTT10=
EXTT11=
EXTT12=
EXTT13=
PLAYORDER=
